<svg xmlns="http://www.w3.org/2000/svg" width="158.8564mm" height="55.8799mm" viewBox="0 0 450.3016 158.3998"><path d="M126.2246,117.0945a.4454.4454,0,0,1-.315.3018,1.7076,1.7076,0,0,1-.3339.0566c-.1338.0108-.3018.0156-.5025.0156-.1528,0-.2876-.0029-.4-.0048a1.9967,1.9967,0,0,1-.2944-.0264c-.0845-.0147-.1548-.03-.2134-.0459a.7766.7766,0,0,1-.1518-.0674.431.431,0,0,1-.0987-.0967.84.84,0,0,1-.0674-.1445l-4.3911-12.4941a1.3247,1.3247,0,0,1-.0888-.3721.2327.2327,0,0,1,.0888-.2129.5865.5865,0,0,1,.3013-.0947q.21-.0206.561-.0205c.1944,0,.3457.0068.4639.0166a.8916.8916,0,0,1,.2608.0556.3333.3333,0,0,1,.143.1114.6888.6888,0,0,1,.0879.1709l3.8521,11.3222h.0112l3.7451-11.3037a.829.829,0,0,1,.0742-.1855.2674.2674,0,0,1,.1446-.1153,1.12,1.12,0,0,1,.291-.0556c.124-.01.291-.0166.4961-.0166a3.837,3.837,0,0,1,.5117.0273.4214.4214,0,0,1,.2558.1016.2607.2607,0,0,1,.0474.21,1.6931,1.6931,0,0,1-.0991.37Zm-14.7583-5.54a3.1222,3.1222,0,0,0-.6-2.124,2.2583,2.2583,0,0,0-1.86-.7676,2.4468,2.4468,0,0,0-1.1118.2392,2.3846,2.3846,0,0,0-.7983.6338,2.8491,2.8491,0,0,0-.5.919,3.91,3.91,0,0,0-.1972,1.1Zm1.7212.5039a.73.73,0,0,1-.2007.581.7.7,0,0,1-.4624.1719H106.4a5.8915,5.8915,0,0,0,.1553,1.4053,2.6636,2.6636,0,0,0,.52,1.0664,2.3618,2.3618,0,0,0,.9438.69,3.7333,3.7333,0,0,0,1.4224.2363,5.5283,5.5283,0,0,0,1.186-.11,6.8328,6.8328,0,0,0,.8955-.2441c.25-.09.461-.1709.6226-.24a.9926.9926,0,0,1,.3686-.1133.2473.2473,0,0,1,.1285.0381.2241.2241,0,0,1,.0888.11.7668.7668,0,0,1,.0489.2012c.0068.0839.0146.1933.0146.3134a2.0125,2.0125,0,0,1-.0112.2373c-.0069.0655-.0137.1241-.024.1778a.4507.4507,0,0,1-.0537.1416.7742.7742,0,0,1-.0908.1181,1.5247,1.5247,0,0,1-.3413.1866,5.4553,5.4553,0,0,1-.7261.2568c-.2978.082-.6421.1543-1.0317.2236a7.78,7.78,0,0,1-1.25.0987,5.843,5.843,0,0,1-2.0195-.3223,3.823,3.823,0,0,1-1.46-.958,4.1072,4.1072,0,0,1-.8926-1.59,7.4857,7.4857,0,0,1-.3022-2.2246,7.0587,7.0587,0,0,1,.313-2.1709,4.5677,4.5677,0,0,1,.8989-1.6308,3.9306,3.9306,0,0,1,1.4185-1.0313,4.67,4.67,0,0,1,1.8549-.3584,4.5005,4.5005,0,0,1,1.8746.3545,3.5542,3.5542,0,0,1,1.2719.9531,3.7839,3.7839,0,0,1,.732,1.4014,6.1613,6.1613,0,0,1,.2324,1.7188Zm-12.8589-1.4961a6.7817,6.7817,0,0,0-1.3467-1.3125,2.32,2.32,0,0,0-1.353-.4531,1.92,1.92,0,0,0-1.1089.3115,2.3916,2.3916,0,0,0-.7451.8252,3.7322,3.7322,0,0,0-.4141,1.15,6.5253,6.5253,0,0,0-.13,1.3105,8.5529,8.5529,0,0,0,.1093,1.3848,3.939,3.939,0,0,0,.3789,1.1992,2.25,2.25,0,0,0,.7159.8408,1.8846,1.8846,0,0,0,1.12.32,2.29,2.29,0,0,0,.6616-.0947,2.4647,2.4647,0,0,0,.6494-.3154,4.74,4.74,0,0,0,.6939-.5635,8.481,8.481,0,0,0,.769-.8574Zm1.7231,6.5859a.302.302,0,0,1-.0351.1446.2783.2783,0,0,1-.125.0986,1.2353,1.2353,0,0,1-.2349.0586,2.6256,2.6256,0,0,1-.354.0185,2.6955,2.6955,0,0,1-.3618-.0185,1.3439,1.3439,0,0,1-.24-.0586.2884.2884,0,0,1-.1333-.0986.2473.2473,0,0,1-.044-.1446V115.906a6.1751,6.1751,0,0,1-1.5293,1.253,3.4838,3.4838,0,0,1-1.7373.4463,3.6265,3.6265,0,0,1-1.7568-.4,3.2986,3.2986,0,0,1-1.1778-1.085,4.7214,4.7214,0,0,1-.6582-1.5977,8.7218,8.7218,0,0,1-.21-1.9394,8.5373,8.5373,0,0,1,.2593-2.1777,4.8534,4.8534,0,0,1,.769-1.6582,3.4425,3.4425,0,0,1,1.2612-1.0577,3.93,3.93,0,0,1,1.7388-.37,3.1979,3.1979,0,0,1,1.4995.3584,5.427,5.427,0,0,1,1.3467,1.0557v-5.4395a.2954.2954,0,0,1,.0356-.1377.2231.2231,0,0,1,.1412-.1015,1.3537,1.3537,0,0,1,.2626-.0655,2.9663,2.9663,0,0,1,.4107-.0224,3.1418,3.1418,0,0,1,.4253.0224,1.1206,1.1206,0,0,1,.2593.0655.2807.2807,0,0,1,.143.1015.2416.2416,0,0,1,.0454.1377Zm-12.8535-4.2646H87.7348a5.5792,5.5792,0,0,0-1.226.1172,2.6647,2.6647,0,0,0-.86.3554,1.4965,1.4965,0,0,0-.5029.5606,1.6958,1.6958,0,0,0-.16.7529,1.5123,1.5123,0,0,0,.4615,1.1611,1.8315,1.8315,0,0,0,1.2934.4336,2.41,2.41,0,0,0,1.2505-.3437,5.4788,5.4788,0,0,0,1.2075-1.0508Zm1.7061,4.2754a.211.211,0,0,1-.0869.1826.5391.5391,0,0,1-.2261.0957,2.0782,2.0782,0,0,1-.4243.0312,2.2206,2.2206,0,0,1-.4322-.0312.4936.4936,0,0,1-.2343-.0957.2192.2192,0,0,1-.0708-.1826v-.9375A4.6347,4.6347,0,0,1,88.063,117.24a3.6567,3.6567,0,0,1-1.5928.3653,4.2745,4.2745,0,0,1-1.3369-.1954,2.8766,2.8766,0,0,1-1.0161-.5546,2.5531,2.5531,0,0,1-.6563-.8916,3.0653,3.0653,0,0,1-.229-1.209,2.8241,2.8241,0,0,1,.3179-1.3731,2.7123,2.7123,0,0,1,.9258-.9648,4.51,4.51,0,0,1,1.4741-.5821,9.574,9.574,0,0,1,1.9629-.1894h1.2856v-.7285a3.7336,3.7336,0,0,0-.1128-.9571,1.6044,1.6044,0,0,0-.3686-.6855,1.5722,1.5722,0,0,0-.66-.4219,3.1109,3.1109,0,0,0-.9946-.1386,4.0694,4.0694,0,0,0-1.1377.1484,6.4337,6.4337,0,0,0-.8818.3359,6.7165,6.7165,0,0,0-.6363.334.8927.8927,0,0,1-.3774.1465.2756.2756,0,0,1-.1465-.0381.3645.3645,0,0,1-.1094-.1269.6928.6928,0,0,1-.0669-.2139,1.8364,1.8364,0,0,1-.0215-.2842,1.8011,1.8011,0,0,1,.0386-.4082.5888.5888,0,0,1,.1768-.2891,2.2579,2.2579,0,0,1,.4814-.3173,5.3346,5.3346,0,0,1,.7871-.3321,7.91,7.91,0,0,1,.9781-.2519,5.85,5.85,0,0,1,1.0712-.0977,5.64,5.64,0,0,1,1.712.23,2.7721,2.7721,0,0,1,1.1411.6719,2.5759,2.5759,0,0,1,.6328,1.0966,5.2451,5.2451,0,0,1,.2,1.5264Zm-11.9282-6.5967a6.7844,6.7844,0,0,0-1.3467-1.3125,2.3218,2.3218,0,0,0-1.3531-.4531,1.9262,1.9262,0,0,0-1.1093.3115,2.4155,2.4155,0,0,0-.7447.8252,3.748,3.748,0,0,0-.4145,1.15,6.5633,6.5633,0,0,0-.1323,1.3105,8.3325,8.3325,0,0,0,.1108,1.3848,3.9674,3.9674,0,0,0,.38,1.1992,2.2636,2.2636,0,0,0,.7139.8408,1.8934,1.8934,0,0,0,1.1206.32,2.2966,2.2966,0,0,0,.6631-.0947,2.4611,2.4611,0,0,0,.6484-.3154,4.93,4.93,0,0,0,.6948-.5635,8.7294,8.7294,0,0,0,.7691-.8574Zm1.7216,6.5859a.2811.2811,0,0,1-.0356.1446.2666.2666,0,0,1-.1231.0986,1.2727,1.2727,0,0,1-.2348.0586,3.4526,3.4526,0,0,1-.7139,0,1.33,1.33,0,0,1-.2422-.0586.3122.3122,0,0,1-.1352-.0986.2615.2615,0,0,1-.043-.1446V115.906a6.1269,6.1269,0,0,1-1.53,1.253,3.4788,3.4788,0,0,1-1.7353.4463,3.6326,3.6326,0,0,1-1.7583-.4A3.3057,3.3057,0,0,1,72.97,116.12a4.7214,4.7214,0,0,1-.6582-1.5977,8.7217,8.7217,0,0,1-.21-1.9394,8.6039,8.6039,0,0,1,.2574-2.1777,4.8932,4.8932,0,0,1,.771-1.6582,3.4289,3.4289,0,0,1,1.2607-1.0577,3.9361,3.9361,0,0,1,1.7412-.37,3.2,3.2,0,0,1,1.4976.3584,5.427,5.427,0,0,1,1.3467,1.0557v-5.4395a.3007.3007,0,0,1,.0351-.1377.2254.2254,0,0,1,.1416-.1015,1.3568,1.3568,0,0,1,.2627-.0655,2.9653,2.9653,0,0,1,.4107-.0224,3.1591,3.1591,0,0,1,.4252.0224,1.1754,1.1754,0,0,1,.2593.0655.269.269,0,0,1,.1411.1015.2424.2424,0,0,1,.0459.1377ZM69.7221,104.6267a1.1243,1.1243,0,0,1-.2255.8223,1.216,1.216,0,0,1-.84.2149,1.1883,1.1883,0,0,1-.8252-.212,1.1078,1.1078,0,0,1-.2236-.8047,1.1385,1.1385,0,0,1,.2275-.8212,1.2259,1.2259,0,0,1,.8394-.2207,1.2055,1.2055,0,0,1,.8252.2138,1.109,1.109,0,0,1,.2221.8076m-.1938,12.5215a.2211.2211,0,0,1-.0425.1377.3234.3234,0,0,1-.1357.0987.9291.9291,0,0,1-.2578.0654,3.7214,3.7214,0,0,1-.4278.0185,3.57,3.57,0,0,1-.415-.0185.9935.9935,0,0,1-.2627-.0654.2554.2554,0,0,1-.1343-.0987.2515.2515,0,0,1-.0405-.1377v-9.36a.2554.2554,0,0,1,.0405-.1328.2318.2318,0,0,1,.1343-.1055,1.0883,1.0883,0,0,1,.2627-.0635,3.9482,3.9482,0,0,1,.415-.0224,4.092,4.092,0,0,1,.4278.0224,1.0152,1.0152,0,0,1,.2578.0635.2839.2839,0,0,1,.1357.1055.2228.2228,0,0,1,.0425.1328Zm-4.1636-2.5468a2.98,2.98,0,0,1-.2646,1.2763,2.5955,2.5955,0,0,1-.7554.9453,3.3446,3.3446,0,0,1-1.1626.584,5.2954,5.2954,0,0,1-1.4844.1983,5.4325,5.4325,0,0,1-.9506-.08,5.7562,5.7562,0,0,1-.8082-.1973,4.4652,4.4652,0,0,1-.61-.248,2.1628,2.1628,0,0,1-.3589-.2334.5992.5992,0,0,1-.168-.292,1.9339,1.9339,0,0,1-.0527-.51,2.3246,2.3246,0,0,1,.02-.335,1.13,1.13,0,0,1,.0537-.2167.221.221,0,0,1,.0894-.12.2264.2264,0,0,1,.1274-.0381.7291.7291,0,0,1,.34.1446c.1479.0918.3295.1943.5483.3047a4.9952,4.9952,0,0,0,.7725.3066,3.3407,3.3407,0,0,0,1.0283.1416,3.2239,3.2239,0,0,0,.7895-.0928,2.0247,2.0247,0,0,0,.6123-.2763,1.2393,1.2393,0,0,0,.397-.461,1.4524,1.4524,0,0,0,.1431-.667,1.054,1.054,0,0,0-.2032-.663,1.89,1.89,0,0,0-.5336-.4805,4.4726,4.4726,0,0,0-.7486-.37c-.2764-.1055-.5639-.2207-.8569-.3379a8.2121,8.2121,0,0,1-.8628-.4014,3.1551,3.1551,0,0,1-.7495-.5439,2.5068,2.5068,0,0,1-.5362-.7715,2.604,2.604,0,0,1-.2006-1.0694,2.6987,2.6987,0,0,1,.2119-1.0576,2.4707,2.4707,0,0,1,.6377-.8838,3.2309,3.2309,0,0,1,1.062-.6064,4.4651,4.4651,0,0,1,1.4922-.23,4.4117,4.4117,0,0,1,.7475.0655,4.355,4.355,0,0,1,.6739.1552,2.72,2.72,0,0,1,.5131.2032,2.0869,2.0869,0,0,1,.3228.1894.6877.6877,0,0,1,.1465.1445.4716.4716,0,0,1,.0522.1446c.0113.05.0186.1123.0288.1914a1.937,1.937,0,0,1,.0181.2822,2.3764,2.3764,0,0,1-.0181.3047.6819.6819,0,0,1-.0493.21.2477.2477,0,0,1-.0879.1211.1848.1848,0,0,1-.1137.0381.5651.5651,0,0,1-.273-.1172c-.1177-.0712-.27-.1533-.4546-.2412a5.4681,5.4681,0,0,0-.6611-.2461,2.9964,2.9964,0,0,0-.8667-.1162,2.6809,2.6809,0,0,0-.7671.1016,1.5277,1.5277,0,0,0-.5469.2793,1.2347,1.2347,0,0,0-.3227.4346,1.3684,1.3684,0,0,0-.105.5419,1.1023,1.1023,0,0,0,.2036.6788,2.0164,2.0164,0,0,0,.5435.4824,4.6431,4.6431,0,0,0,.7553.3769c.2866.1084.5728.2237.8672.3379.2944.1221.5855.2549.8731.4033a3.13,3.13,0,0,1,.7656.5264,2.3631,2.3631,0,0,1,.7358,1.79m-7.4555-6.1993c0,.1514-.0035.2813-.01.3848a1.0149,1.0149,0,0,1-.041.2422.3109.3109,0,0,1-.0762.1348.1665.1665,0,0,1-.1313.0458.4968.4968,0,0,1-.2017-.0458c-.0825-.0274-.17-.0586-.27-.0918-.1026-.0323-.2119-.0586-.3369-.0879a1.7644,1.7644,0,0,0-.4073-.043,1.2507,1.2507,0,0,0-.5063.1084,1.8631,1.8631,0,0,0-.5254.3379,4.3509,4.3509,0,0,0-.5767.6377c-.1972.2617-.4223.583-.663.9638v6.1592a.2243.2243,0,0,1-.0425.1377.3251.3251,0,0,1-.1363.0987.9327.9327,0,0,1-.2573.0654,3.7485,3.7485,0,0,1-.4287.0185,3.5635,3.5635,0,0,1-.4141-.0185.9927.9927,0,0,1-.2626-.0654.2591.2591,0,0,1-.1348-.0987.2548.2548,0,0,1-.0386-.1377v-9.36a.3527.3527,0,0,1,.03-.1455.3812.3812,0,0,1,.125-.1.6925.6925,0,0,1,.2417-.0606c.0957-.0078.2222-.0185.3823-.0185.1524,0,.2808.0107.38.0185a.6088.6088,0,0,1,.2324.0606.4373.4373,0,0,1,.12.1.2975.2975,0,0,1,.0372.1455v1.3633a6.95,6.95,0,0,1,.72-.9161,4.03,4.03,0,0,1,.64-.5576,1.983,1.983,0,0,1,.5967-.2793,2.43,2.43,0,0,1,.5942-.0791c.0933,0,.1953.0069.3086.0166a2.9763,2.9763,0,0,1,.3579.0586,2.8383,2.8383,0,0,1,.337.0918.7174.7174,0,0,1,.2119.1035.2755.2755,0,0,1,.0859.1.5149.5149,0,0,1,.0352.1211,1.3011,1.3011,0,0,1,.0214.2129c.0035.0918.0035.2188.0035.3789m-9.7871,3.1524a3.1227,3.1227,0,0,0-.5992-2.124,2.2609,2.2609,0,0,0-1.86-.7676,2.459,2.459,0,0,0-1.1133.2392,2.3724,2.3724,0,0,0-.7964.6338,2.8114,2.8114,0,0,0-.4995.919,3.9805,3.9805,0,0,0-.1992,1.1Zm1.7216.5039a.7281.7281,0,0,1-.2007.581.7.7,0,0,1-.4624.1719H43.0542a5.8173,5.8173,0,0,0,.1567,1.4053,2.698,2.698,0,0,0,.52,1.0664,2.3552,2.3552,0,0,0,.9439.69,3.7284,3.7284,0,0,0,1.4228.2363,5.4878,5.4878,0,0,0,1.1841-.11,6.8734,6.8734,0,0,0,.8975-.2441c.25-.09.46-.1709.6225-.24a.9924.9924,0,0,1,.3687-.1133.24.24,0,0,1,.1265.0381.2163.2163,0,0,1,.09.11.742.742,0,0,1,.0493.2012c.0068.0839.0147.1933.0147.3134a2.01,2.01,0,0,1-.0113.2373c-.0068.0655-.0136.1241-.0244.1778a.45.45,0,0,1-.0532.1416.7852.7852,0,0,1-.0913.1181,1.55,1.55,0,0,1-.3428.1866,5.4144,5.4144,0,0,1-.7241.2568c-.2979.082-.6426.1543-1.0318.2236a7.7812,7.7812,0,0,1-1.25.0987,5.8436,5.8436,0,0,1-2.02-.3223,3.8112,3.8112,0,0,1-1.46-.958,4.1267,4.1267,0,0,1-.8936-1.59,7.5371,7.5371,0,0,1-.3008-2.2246A7.0773,7.0773,0,0,1,41.56,110.34a4.5687,4.5687,0,0,1,.8995-1.6308,3.925,3.925,0,0,1,1.4179-1.0313,4.6743,4.6743,0,0,1,1.855-.3584,4.5009,4.5009,0,0,1,1.875.3545,3.559,3.559,0,0,1,1.272.9531,3.78,3.78,0,0,1,.73,1.4014,6.1061,6.1061,0,0,1,.2343,1.7188Zm-9.7055-4.293a.7551.7551,0,0,1-.0035.0889c-.0034.0332-.01.0654-.017.1015a.9888.9888,0,0,1-.0249.1123c-.01.043-.0215.0879-.0352.1348L36.87,117.0945a.5773.5773,0,0,1-.1094.1885.4618.4618,0,0,1-.2007.1133,1.8719,1.8719,0,0,1-.3442.0566c-.1387.0108-.3115.0156-.522.0156-.2041,0-.3789-.0048-.5166-.0185a1.6494,1.6494,0,0,1-.3369-.0654.457.457,0,0,1-.2031-.1124.5237.5237,0,0,1-.1162-.1777l-3.1743-8.8916c-.0284-.08-.0489-.1553-.0669-.2178a.889.889,0,0,1-.0323-.1406.7044.7044,0,0,1-.0034-.0791.2967.2967,0,0,1,.0391-.1445.26.26,0,0,1,.1411-.0967.7784.7784,0,0,1,.2593-.0469c.1059-.0068.2417-.0136.4-.0136.2031,0,.3618.0107.4814.0185a.9139.9139,0,0,1,.2808.0576.3273.3273,0,0,1,.1445.1026.9227.9227,0,0,1,.0894.1572l2.6352,7.7178.0425.12.0332-.12L38.3965,107.8a.3347.3347,0,0,1,.0722-.1572.3672.3672,0,0,1,.15-.1026.9091.9091,0,0,1,.27-.0576c.1162-.0078.2641-.0185.4536-.0185.1587,0,.29.0068.3926.0136a.6507.6507,0,0,1,.2456.0518.2588.2588,0,0,1,.123.0986.2475.2475,0,0,1,.0352.1377m-10.6309-3.1387a1.1329,1.1329,0,0,1-.2256.8223,1.2206,1.2206,0,0,1-.84.2149,1.1958,1.1958,0,0,1-.8277-.212,1.1083,1.1083,0,0,1-.2221-.8047,1.141,1.141,0,0,1,.2256-.8212,1.2323,1.2323,0,0,1,.84-.2207,1.2128,1.2128,0,0,1,.8276.2138,1.1177,1.1177,0,0,1,.2222.8076m-.1938,12.5215a.2139.2139,0,0,1-.045.1377.3022.3022,0,0,1-.1333.0987.9464.9464,0,0,1-.2573.0654,3.77,3.77,0,0,1-.4307.0185,3.5525,3.5525,0,0,1-.4126-.0185.9723.9723,0,0,1-.2626-.0654.26.26,0,0,1-.1358-.0987.2428.2428,0,0,1-.0391-.1377v-9.36a.2452.2452,0,0,1,.0391-.1328.2356.2356,0,0,1,.1358-.1055,1.0636,1.0636,0,0,1,.2626-.0635,3.9365,3.9365,0,0,1,.4126-.0224,4.1442,4.1442,0,0,1,.4307.0224,1.0357,1.0357,0,0,1,.2573.0635.2678.2678,0,0,1,.1333.1055.2157.2157,0,0,1,.045.1328Zm-4.8379,0a.2211.2211,0,0,1-.0425.1377.3058.3058,0,0,1-.1343.0987.9445.9445,0,0,1-.2593.0654,3.5628,3.5628,0,0,1-.414.0185,3.7328,3.7328,0,0,1-.4287-.0185.984.984,0,0,1-.2593-.0654.3273.3273,0,0,1-.1343-.0987.2275.2275,0,0,1-.0425-.1377v-5.4824a5.1858,5.1858,0,0,0-.1245-1.2861,2.6446,2.6446,0,0,0-.36-.8438,1.5773,1.5773,0,0,0-.6206-.5429,2.0122,2.0122,0,0,0-.875-.1875,2.221,2.221,0,0,0-1.2876.46,6.9131,6.9131,0,0,0-1.3487,1.34v6.5429a.2163.2163,0,0,1-.0444.1377.3046.3046,0,0,1-.1338.0987.9474.9474,0,0,1-.2573.0654,3.7718,3.7718,0,0,1-.4307.0185,3.558,3.558,0,0,1-.4126-.0185.9884.9884,0,0,1-.2627-.0654.268.268,0,0,1-.1357-.0987.2467.2467,0,0,1-.0391-.1377v-9.36a.3393.3393,0,0,1,.0322-.1455.36.36,0,0,1,.1246-.1.6979.6979,0,0,1,.2421-.0606c.0948-.0078.2222-.0185.38-.0185.1533,0,.2808.0107.3794.0185a.6152.6152,0,0,1,.2349.0606.47.47,0,0,1,.12.1.32.32,0,0,1,.0352.1455v1.2383a5.6686,5.6686,0,0,1,1.5737-1.292,3.3354,3.3354,0,0,1,1.582-.4151,3.484,3.484,0,0,1,1.5733.3184,2.8314,2.8314,0,0,1,1.0332.8476,3.3831,3.3831,0,0,1,.5639,1.2413,7.2813,7.2813,0,0,1,.1734,1.7089Zm-11.3882-4.7109a6.1884,6.1884,0,0,1-.3618,2.1865,4.4892,4.4892,0,0,1-1.021,1.6289,4.2616,4.2616,0,0,1-1.6192,1.0059,6.383,6.383,0,0,1-2.1694.3467A6.1487,6.1487,0,0,1,5.89,117.283a4.2923,4.2923,0,0,1-1.5664-.9531,4.1285,4.1285,0,0,1-1.0049-1.5752,6.1659,6.1659,0,0,1-.3564-2.1846v-8.35a.2394.2394,0,0,1,.0449-.1445.2518.2518,0,0,1,.1445-.0987,1.4011,1.4011,0,0,1,.27-.0615,2.8357,2.8357,0,0,1,.4355-.0273,2.8963,2.8963,0,0,1,.4248.0273,1.3953,1.3953,0,0,1,.2774.0615.25.25,0,0,1,.1377.0987.2591.2591,0,0,1,.042.1445v8.1309a5.3489,5.3489,0,0,0,.2275,1.6347,3.0379,3.0379,0,0,0,.6611,1.1572,2.7447,2.7447,0,0,0,1.0352.6983,3.79,3.79,0,0,0,1.3686.2324,3.8962,3.8962,0,0,0,1.3848-.2256,2.6545,2.6545,0,0,0,1.0283-.6894,3.0375,3.0375,0,0,0,.6441-1.1328,5.0143,5.0143,0,0,0,.2236-1.5782v-8.2275a.2487.2487,0,0,1,.0391-.1445.2637.2637,0,0,1,.1465-.0987,1.4691,1.4691,0,0,1,.2744-.0615,2.8851,2.8851,0,0,1,.4292-.0273,2.8269,2.8269,0,0,1,.4223.0273,1.2881,1.2881,0,0,1,.2691.0615.2851.2851,0,0,1,.1465.0987.24.24,0,0,1,.0488.1445Z" fill="#808285"/><path d="M71.7637,136.5594a6.8134,6.8134,0,0,0-1.3457-1.3145,2.3309,2.3309,0,0,0-1.3531-.4551,1.9474,1.9474,0,0,0-1.1108.3106,2.4129,2.4129,0,0,0-.7422.8252,3.7907,3.7907,0,0,0-.4146,1.1552,6.3052,6.3052,0,0,0-.1323,1.3086,8.7377,8.7377,0,0,0,.1094,1.3838,4.0045,4.0045,0,0,0,.38,1.2,2.2646,2.2646,0,0,0,.7168.8408,1.871,1.871,0,0,0,1.1176.3184,2.3063,2.3063,0,0,0,.6631-.0967,2.3709,2.3709,0,0,0,.6494-.3115,5.0732,5.0732,0,0,0,.6949-.5654,8.8511,8.8511,0,0,0,.7671-.8575Zm1.7231,6.581a.2385.2385,0,0,1-.1606.2461,1.4628,1.4628,0,0,1-.233.0547,2.64,2.64,0,0,1-.7163,0,1.6883,1.6883,0,0,1-.2412-.0547.3515.3515,0,0,1-.1343-.1.2713.2713,0,0,1-.0419-.1465v-1.2373a6.0739,6.0739,0,0,1-1.5313,1.2451,3.4405,3.4405,0,0,1-1.7353.4522,3.5566,3.5566,0,0,1-1.7583-.4053,3.3094,3.3094,0,0,1-1.1763-1.08,4.7483,4.7483,0,0,1-.66-1.6,8.8941,8.8941,0,0,1-.2075-1.9394,8.54,8.54,0,0,1,.2573-2.1768,4.8518,4.8518,0,0,1,.7691-1.6592,3.5106,3.5106,0,0,1,1.2622-1.0576,3.9038,3.9038,0,0,1,1.7387-.37,3.1559,3.1559,0,0,1,1.5.3613,5.3283,5.3283,0,0,1,1.3457,1.0567v-5.4434a.2867.2867,0,0,1,.0356-.1377.2238.2238,0,0,1,.1426-.1016,1.384,1.384,0,0,1,.2627-.0654,2.7806,2.7806,0,0,1,.4111-.0234,2.9793,2.9793,0,0,1,.4243.0234,1.2408,1.2408,0,0,1,.26.0654.2587.2587,0,0,1,.14.1016.238.238,0,0,1,.0464.1377Zm-12.8521-4.2617H59.1709a5.8131,5.8131,0,0,0-1.2251.1152,2.5783,2.5783,0,0,0-.8613.3555,1.4687,1.4687,0,0,0-.5049.56,1.73,1.73,0,0,0-.1582.7558,1.4954,1.4954,0,0,0,.46,1.1573,1.8174,1.8174,0,0,0,1.2945.4345,2.4,2.4,0,0,0,1.249-.3427,5.3568,5.3568,0,0,0,1.2094-1.0528Zm1.7037,4.2695a.2166.2166,0,0,1-.0845.1885.5447.5447,0,0,1-.2256.0947,2.2079,2.2079,0,0,1-.4272.0342,2.3664,2.3664,0,0,1-.4322-.0342.4948.4948,0,0,1-.2324-.0947.2242.2242,0,0,1-.0723-.1885v-.9326a4.6288,4.6288,0,0,1-1.3667,1.0176,3.6016,3.6016,0,0,1-1.5908.3672,4.2336,4.2336,0,0,1-1.3374-.1973,2.85,2.85,0,0,1-1.0151-.5557,2.4994,2.4994,0,0,1-.6563-.8925,2.9868,2.9868,0,0,1-.2314-1.2071,2.8213,2.8213,0,0,1,.3193-1.373,2.6777,2.6777,0,0,1,.9238-.9639,4.4636,4.4636,0,0,1,1.4747-.5791,9.118,9.118,0,0,1,1.9633-.1943h1.2871v-.7236a3.7591,3.7591,0,0,0-.1127-.959,1.6449,1.6449,0,0,0-.3682-.6914,1.6951,1.6951,0,0,0-.66-.42,3.1674,3.1674,0,0,0-.9966-.1357,3.8528,3.8528,0,0,0-1.1377.1514,6.4211,6.4211,0,0,0-.8818.331c-.2559.12-.4639.2324-.6352.334a.8779.8779,0,0,1-.379.1475.29.29,0,0,1-.145-.0362.3811.3811,0,0,1-.1093-.1289.6184.6184,0,0,1-.0669-.2119,1.82,1.82,0,0,1-.02-.2861,1.6311,1.6311,0,0,1,.0385-.4092.6058.6058,0,0,1,.1763-.29,2.2737,2.2737,0,0,1,.4814-.3145,5.7622,5.7622,0,0,1,.7867-.3359,7.349,7.349,0,0,1,.979-.2451,6.1134,6.1134,0,0,1,2.7807.1308,2.7438,2.7438,0,0,1,1.1416.67,2.6145,2.6145,0,0,1,.6348,1.0957,5.3729,5.3729,0,0,1,.1973,1.5274Zm-9.0474-.6972a2.3735,2.3735,0,0,1-.0371.4775.5061.5061,0,0,1-.1289.26.6578.6578,0,0,1-.2466.1582,2.14,2.14,0,0,1-.38.122c-.1421.0284-.291.0557-.4492.0762a3.4393,3.4393,0,0,1-.48.0313,3.6362,3.6362,0,0,1-1.2466-.1895,2.0766,2.0766,0,0,1-.85-.584,2.4256,2.4256,0,0,1-.4814-.9883,5.8081,5.8081,0,0,1-.15-1.4091v-5.4717H47.5307a.277.277,0,0,1-.249-.166,1.1525,1.1525,0,0,1-.0913-.54,1.7424,1.7424,0,0,1,.0249-.331.9672.9672,0,0,1,.0664-.2227.2523.2523,0,0,1,.1094-.125.2881.2881,0,0,1,.15-.0361h1.3v-2.2256a.2583.2583,0,0,1,.0351-.1357.3061.3061,0,0,1,.1353-.11.8064.8064,0,0,1,.2671-.0654,3.3166,3.3166,0,0,1,.4141-.0244,3.481,3.481,0,0,1,.4257.0244.7555.7555,0,0,1,.2574.0654.3512.3512,0,0,1,.1352.11.2477.2477,0,0,1,.042.1357v2.2256h2.3994a.26.26,0,0,1,.1445.0361.2639.2639,0,0,1,.106.125.6141.6141,0,0,1,.0679.2227,2.1528,2.1528,0,0,1,.02.331,1.15,1.15,0,0,1-.09.54.2747.2747,0,0,1-.2481.166H50.5532v5.2236a2.9987,2.9987,0,0,0,.2842,1.461,1.0843,1.0843,0,0,0,1.0229.4941,2.1134,2.1134,0,0,0,.4258-.0449c.1245-.0342.2378-.0694.333-.1035a2.3056,2.3056,0,0,0,.2466-.0987.4909.4909,0,0,1,.19-.0459.1744.1744,0,0,1,.0981.0274.1553.1553,0,0,1,.0723.0986.8729.8729,0,0,1,.0454.1943,1.8986,1.8986,0,0,1,.02.3116m-7.0684-1.8584a2.9416,2.9416,0,0,1-.2651,1.2763,2.6218,2.6218,0,0,1-.7544.9492,3.43,3.43,0,0,1-1.1626.5821,5.2935,5.2935,0,0,1-1.4849.2,6.1879,6.1879,0,0,1-.9506-.0782,5.8036,5.8036,0,0,1-.8077-.2011,4.4077,4.4077,0,0,1-.6088-.2481,1.7236,1.7236,0,0,1-.3609-.2363.58.58,0,0,1-.168-.2871,2.046,2.046,0,0,1-.0527-.5137,2.274,2.274,0,0,1,.021-.334,1.0141,1.0141,0,0,1,.0547-.2158.2176.2176,0,0,1,.2148-.1543.7144.7144,0,0,1,.3409.1406c.1479.0918.33.1963.5483.3057a4.98,4.98,0,0,0,.773.3047,3.398,3.398,0,0,0,1.0278.1406,3.2844,3.2844,0,0,0,.79-.0908,1.9244,1.9244,0,0,0,.6123-.2754,1.2874,1.2874,0,0,0,.3985-.4639,1.4581,1.4581,0,0,0,.1406-.665,1.0615,1.0615,0,0,0-.2026-.6641,1.94,1.94,0,0,0-.5347-.48,4.512,4.512,0,0,0-.7476-.37c-.2763-.1064-.5625-.2207-.8569-.3359q-.4416-.18-.8608-.3994a3.2544,3.2544,0,0,1-.751-.5488,2.4455,2.4455,0,0,1-.5366-.7725,2.5851,2.5851,0,0,1-.2007-1.0693,2.71,2.71,0,0,1,.2119-1.0538,2.3921,2.3921,0,0,1,.6382-.8837,3.1975,3.1975,0,0,1,1.0634-.6065,4.3945,4.3945,0,0,1,1.4913-.2324,4.8556,4.8556,0,0,1,1.42.2236,2.65,2.65,0,0,1,.5146.1983,1.9439,1.9439,0,0,1,.3233.1953.609.609,0,0,1,.1445.1445.4408.4408,0,0,1,.0527.1406c.0113.05.0181.1143.0283.19a2.1626,2.1626,0,0,1,.0181.2832,2.5212,2.5212,0,0,1-.0181.3047.7052.7052,0,0,1-.0493.2129.29.29,0,0,1-.0884.123.21.21,0,0,1-.1127.03.5242.5242,0,0,1-.273-.11,4.5267,4.5267,0,0,0-.4556-.2461,5.4465,5.4465,0,0,0-.6616-.2461,3.12,3.12,0,0,0-.8638-.11,2.7447,2.7447,0,0,0-.77.0967,1.5565,1.5565,0,0,0-.5454.2842,1.234,1.234,0,0,0-.3227.4287,1.3622,1.3622,0,0,0-.106.541,1.09,1.09,0,0,0,.2066.6806,1.8663,1.8663,0,0,0,.542.4815,4.4857,4.4857,0,0,0,.7544.3779c.2875.1133.5732.2237.8676.3428s.586.251.8716.3955a3.2019,3.2019,0,0,1,.7647.5293,2.3519,2.3519,0,0,1,.7382,1.7891m-8.5791,2.0683a2.247,2.247,0,0,1-.0205.3272.58.58,0,0,1-.0708.2334.3267.3267,0,0,1-.122.1338.2485.2485,0,0,1-.1485.0449H30.8325a.7255.7255,0,0,1-.45-.1621.6718.6718,0,0,1-.2109-.5684v-11.998a.6843.6843,0,0,1,.2109-.5684.7553.7553,0,0,1,.45-.1562H37.208a.3027.3027,0,0,1,.1514.039.2738.2738,0,0,1,.1079.1387.9235.9235,0,0,1,.07.2324,2.2626,2.2626,0,0,1,.0249.3477,2.0676,2.0676,0,0,1-.0249.3252.94.94,0,0,1-.07.2314.2673.2673,0,0,1-.1079.125.2553.2553,0,0,1-.1514.043H31.9555v4.2217H36.46a.2561.2561,0,0,1,.1514.05.4386.4386,0,0,1,.1147.13.6375.6375,0,0,1,.0669.2286,2.3517,2.3517,0,0,1,.0215.3408,2.0857,2.0857,0,0,1-.0215.3222.617.617,0,0,1-.0669.2188.3005.3005,0,0,1-.1147.1211.3263.3263,0,0,1-.1514.0371H31.9555v4.8145h5.3262a.2592.2592,0,0,1,.1485.041.4.4,0,0,1,.122.1279.5847.5847,0,0,1,.0708.2305,2.4475,2.4475,0,0,1,.0205.3476M20.84,138.47a7.2248,7.2248,0,0,0-.1416-1.4336,3.5465,3.5465,0,0,0-.46-1.1865,2.3312,2.3312,0,0,0-.8726-.8047,2.824,2.824,0,0,0-1.3711-.2988,2.8711,2.8711,0,0,0-1.3027.2734,2.3882,2.3882,0,0,0-.898.7627,3.4066,3.4066,0,0,0-.5239,1.1729,6.0448,6.0448,0,0,0-.17,1.4746,7.293,7.293,0,0,0,.1387,1.4463,3.3283,3.3283,0,0,0,.4677,1.1767,2.3826,2.3826,0,0,0,.875.8047,2.8818,2.8818,0,0,0,1.3716.294,2.848,2.848,0,0,0,1.2959-.2715,2.3828,2.3828,0,0,0,.9033-.7578,3.1915,3.1915,0,0,0,.522-1.1661A6.2691,6.2691,0,0,0,20.84,138.47m1.8042-.1123a6.9488,6.9488,0,0,1-.3017,2.1045,4.64,4.64,0,0,1-.8965,1.6621,4.0571,4.0571,0,0,1-1.4946,1.085A5.2014,5.2014,0,0,1,17.87,143.6a5.4536,5.4536,0,0,1-2.0093-.3448,3.6744,3.6744,0,0,1-1.4267-.999,4.2651,4.2651,0,0,1-.85-1.5918,7.3289,7.3289,0,0,1-.28-2.12,7.1546,7.1546,0,0,1,.2944-2.1045,4.5827,4.5827,0,0,1,.8921-1.66,3.9684,3.9684,0,0,1,1.4927-1.08,5.1646,5.1646,0,0,1,2.082-.3877,5.3827,5.3827,0,0,1,2.0093.3428,3.67,3.67,0,0,1,1.4287.999,4.3146,4.3146,0,0,1,.8584,1.5879,7.2775,7.2775,0,0,1,.2827,2.1152M9.0683,136.5594a6.8613,6.8613,0,0,0-1.3452-1.3145,2.3383,2.3383,0,0,0-1.3545-.4551,1.9479,1.9479,0,0,0-1.1093.3106,2.4246,2.4246,0,0,0-.7447.8252A3.8039,3.8039,0,0,0,4.1,137.0808a6.5078,6.5078,0,0,0-.13,1.3086,8.5193,8.5193,0,0,0,.1094,1.3838,3.9614,3.9614,0,0,0,.3789,1.2,2.2806,2.2806,0,0,0,.7158.8408,1.8859,1.8859,0,0,0,1.12.3184,2.3119,2.3119,0,0,0,.6631-.0967,2.3585,2.3585,0,0,0,.648-.3115,4.8226,4.8226,0,0,0,.6938-.5654,8.3411,8.3411,0,0,0,.769-.8575ZM10.79,143.14a.2982.2982,0,0,1-.0356.1465.3021.3021,0,0,1-.1231.1,1.4593,1.4593,0,0,1-.2343.0547,2.6264,2.6264,0,0,1-.7144,0,1.515,1.515,0,0,1-.2412-.0547.3461.3461,0,0,1-.1343-.1.2572.2572,0,0,1-.0439-.1465v-1.2373a6.1123,6.1123,0,0,1-1.53,1.2451,3.4445,3.4445,0,0,1-1.7368.4522,3.5513,3.5513,0,0,1-1.7569-.4053,3.3077,3.3077,0,0,1-1.1782-1.08,4.7563,4.7563,0,0,1-.6577-1.6,8.742,8.742,0,0,1-.21-1.9394,8.4917,8.4917,0,0,1,.2593-2.1768,4.8185,4.8185,0,0,1,.769-1.6592,3.5255,3.5255,0,0,1,1.2613-1.0576,3.9023,3.9023,0,0,1,1.7387-.37,3.1583,3.1583,0,0,1,1.501.3613A5.3143,5.3143,0,0,1,9.0683,134.73v-5.4434a.2979.2979,0,0,1,.0352-.1377.2189.2189,0,0,1,.1416-.1016,1.4655,1.4655,0,0,1,.2627-.0654,2.7979,2.7979,0,0,1,.4116-.0234,2.957,2.957,0,0,1,.4243.0234,1.1909,1.1909,0,0,1,.2593.0654.2594.2594,0,0,1,.1411.1016.227.227,0,0,1,.0459.1377Zm164.3526-25.9922a.2211.2211,0,0,1-.0425.1377.3194.3194,0,0,1-.1343.0987.9543.9543,0,0,1-.2593.0654,3.72,3.72,0,0,1-.4277.0185,3.5791,3.5791,0,0,1-.415-.0185.9925.9925,0,0,1-.2627-.0654.2551.2551,0,0,1-.1333-.0987.2428.2428,0,0,1-.0391-.1377V103.2556a.264.264,0,0,1,.0391-.1445.2706.2706,0,0,1,.1333-.1084,1.4117,1.4117,0,0,1,.2627-.0605,4.0871,4.0871,0,0,1,.415-.0186,4.2355,4.2355,0,0,1,.4277.0186,1.35,1.35,0,0,1,.2593.0605.3421.3421,0,0,1,.1343.1084.24.24,0,0,1,.0425.1445Zm-6.5606-4.2646h-1.4658a5.7124,5.7124,0,0,0-1.2261.1172,2.7014,2.7014,0,0,0-.86.3554,1.5026,1.5026,0,0,0-.503.5625,1.6813,1.6813,0,0,0-.1582.751,1.5155,1.5155,0,0,0,.4605,1.1631,1.8328,1.8328,0,0,0,1.2925.4316,2.41,2.41,0,0,0,1.25-.3437,5.4745,5.4745,0,0,0,1.21-1.0508Zm1.7036,4.2754a.21.21,0,0,1-.0844.1826.5549.5549,0,0,1-.2276.0957,2.0828,2.0828,0,0,1-.4253.0312,2.2289,2.2289,0,0,1-.4321-.0312.5052.5052,0,0,1-.2344-.0957.2207.2207,0,0,1-.0708-.1826v-.9375a4.6321,4.6321,0,0,1-1.3667,1.0185,3.6532,3.6532,0,0,1-1.5928.3653,4.2554,4.2554,0,0,1-1.3349-.1954,2.901,2.901,0,0,1-1.0181-.5546,2.5334,2.5334,0,0,1-.6533-.8916,3.0132,3.0132,0,0,1-.2319-1.209,2.8078,2.8078,0,0,1,.32-1.3731,2.6936,2.6936,0,0,1,.9238-.9648,4.5278,4.5278,0,0,1,1.4741-.5821,9.5991,9.5991,0,0,1,1.9639-.1875h1.2871v-.73a3.7452,3.7452,0,0,0-.1142-.9571,1.5394,1.5394,0,0,0-1.0284-1.1064,3.1366,3.1366,0,0,0-.9946-.14,4.0618,4.0618,0,0,0-1.1377.1484,6.6008,6.6008,0,0,0-.8818.334,6.9422,6.9422,0,0,0-.6358.3359.8839.8839,0,0,1-.3789.1485.2648.2648,0,0,1-.1445-.0411.3552.3552,0,0,1-.1108-.1259.7.7,0,0,1-.0674-.2139,1.8214,1.8214,0,0,1-.02-.2822,1.7824,1.7824,0,0,1,.0385-.4121.6088.6088,0,0,1,.1758-.2891,2.365,2.365,0,0,1,.4839-.3154,5.3608,5.3608,0,0,1,.7861-.3321,7.8829,7.8829,0,0,1,.9776-.2519,5.8484,5.8484,0,0,1,1.07-.0977,5.6265,5.6265,0,0,1,1.7119.23,2.7714,2.7714,0,0,1,1.1411.6719,2.5868,2.5868,0,0,1,.6338,1.0966,5.2814,5.2814,0,0,1,.1992,1.5264Zm-10.2065-.0108a.2451.2451,0,0,1-.0352.1377.2655.2655,0,0,1-.13.0987.8676.8676,0,0,1-.2452.0654,2.8049,2.8049,0,0,1-.3686.0185,3.0959,3.0959,0,0,1-.39-.0185.85.85,0,0,1-.2358-.0654.2267.2267,0,0,1-.12-.0987.318.318,0,0,1-.0283-.1377V115.906a5.8084,5.8084,0,0,1-1.5821,1.2911,3.3607,3.3607,0,0,1-1.5766.4082,3.6077,3.6077,0,0,1-1.5733-.3125,2.7789,2.7789,0,0,1-1.0317-.8467,3.4006,3.4006,0,0,1-.5659-1.251,7.4825,7.4825,0,0,1-.1714-1.7275v-5.68a.2543.2543,0,0,1,.0371-.1436.4.4,0,0,1,.1377-.1015.8058.8058,0,0,1,.2729-.0606c.1094-.0078.2476-.0185.4151-.0185.1655,0,.3052.0107.4145.0185a.7566.7566,0,0,1,.2642.0606.4684.4684,0,0,1,.14.1015.2458.2458,0,0,1,.042.1436v5.4453a5.8032,5.8032,0,0,0,.12,1.3213,2.4758,2.4758,0,0,0,.3618.8408,1.6873,1.6873,0,0,0,.6177.5371,1.8421,1.8421,0,0,0,.875.1943,2.1658,2.1658,0,0,0,1.2778-.456,7.2856,7.2856,0,0,0,1.3579-1.3438v-6.539a.2754.2754,0,0,1,.0356-.1436.3791.3791,0,0,1,.1426-.1015.7666.7666,0,0,1,.2613-.0606c.1059-.0078.2485-.0185.4218-.0185.1651,0,.3047.0107.4141.0185a.68.68,0,0,1,.2593.0606.5576.5576,0,0,1,.1411.1015.2241.2241,0,0,1,.0459.1436Zm-10.2676-.69a2.4471,2.4471,0,0,1-.0391.48.5138.5138,0,0,1-.1289.2588.69.69,0,0,1-.2465.1523,1.6993,1.6993,0,0,1-.38.123,4.0372,4.0372,0,0,1-.4492.0791,3.4392,3.4392,0,0,1-.48.0342,3.63,3.63,0,0,1-1.2466-.1943,2.072,2.072,0,0,1-.85-.582,2.4162,2.4162,0,0,1-.4815-.99,5.7859,5.7859,0,0,1-.15-1.4092v-5.4687h-1.3105a.2778.2778,0,0,1-.249-.167,1.1478,1.1478,0,0,1-.0913-.5391,1.8156,1.8156,0,0,1,.0244-.3339,1.0764,1.0764,0,0,1,.0669-.2237.2752.2752,0,0,1,.1093-.123.3113.3113,0,0,1,.15-.0342h1.3v-2.2266a.2424.2424,0,0,1,.0357-.1328.2787.2787,0,0,1,.1348-.1133.8548.8548,0,0,1,.267-.0654,3.0318,3.0318,0,0,1,.4141-.0225,3.1653,3.1653,0,0,1,.4248.0225.8213.8213,0,0,1,.2593.0654.3356.3356,0,0,1,.1343.1133.2259.2259,0,0,1,.042.1328V107.52h2.3994a.2777.2777,0,0,1,.1445.0342.2688.2688,0,0,1,.105.123.63.63,0,0,1,.0693.2237,2.2152,2.2152,0,0,1,.0215.3339,1.1393,1.1393,0,0,1-.0923.5391.2766.2766,0,0,1-.248.167h-2.3994v5.2227a3.0005,3.0005,0,0,0,.2841,1.46,1.0861,1.0861,0,0,0,1.0235.4942,1.8393,1.8393,0,0,0,.4243-.0479c.126-.0312.2388-.0654.334-.0967.0947-.0381.1811-.0683.2466-.1a.4548.4548,0,0,1,.1884-.0449.2044.2044,0,0,1,.1006.0225.1682.1682,0,0,1,.0708.0986,1.04,1.04,0,0,1,.0459.1963,1.9235,1.9235,0,0,1,.0215.3115M143,108.4041c0,.1494-.0034.2773-.01.3828a1.0582,1.0582,0,0,1-.039.2422.3314.3314,0,0,1-.0772.1348.173.173,0,0,1-.1308.0458.5318.5318,0,0,1-.2027-.0458c-.081-.0274-.1694-.0586-.2695-.0918-.1025-.0323-.2119-.0586-.3374-.0879a1.7412,1.7412,0,0,0-.4072-.043,1.2559,1.2559,0,0,0-.5059.1074,1.896,1.896,0,0,0-.5244.3389,4.3182,4.3182,0,0,0-.5776.6377c-.1983.2617-.4219.583-.6617.9638v6.1592a.2255.2255,0,0,1-.0444.1377.32.32,0,0,1-.1338.0987.9474.9474,0,0,1-.2573.0654,3.7718,3.7718,0,0,1-.4307.0185,3.5941,3.5941,0,0,1-.414-.0185,1.0029,1.0029,0,0,1-.2627-.0654.239.239,0,0,1-.1734-.2364v-9.36a.2994.2994,0,0,1,.0323-.1436.335.335,0,0,1,.1245-.1015.6574.6574,0,0,1,.24-.0606c.0947-.0078.2241-.0185.3823-.0185.1519,0,.2808.0107.3789.0185a.5916.5916,0,0,1,.2354.0606.4743.4743,0,0,1,.12.1015.3061.3061,0,0,1,.0352.1436v1.3633a7.0347,7.0347,0,0,1,.72-.9161,4.1173,4.1173,0,0,1,.6416-.5576,1.9721,1.9721,0,0,1,.5942-.2793,2.4539,2.4539,0,0,1,.5957-.0791c.0923,0,.1949.0069.3076.0166a2.9491,2.9491,0,0,1,.358.0586,2.9119,2.9119,0,0,1,.3369.0918.7372.7372,0,0,1,.2134.1035.2733.2733,0,0,1,.0844.1016.51.51,0,0,1,.0357.1191,1.344,1.344,0,0,1,.0205.211c.0034.0937.0034.2187.0034.3828m-8.43-3.7774a1.1222,1.1222,0,0,1-.2256.82,1.2187,1.2187,0,0,1-.8413.2168,1.1889,1.1889,0,0,1-.8247-.2139,1.095,1.095,0,0,1-.2231-.8028,1.1365,1.1365,0,0,1,.2265-.8212,1.23,1.23,0,0,1,.8389-.2207,1.21,1.21,0,0,1,.8271.2138,1.1154,1.1154,0,0,1,.2222.8076m-.1933,12.5215a.219.219,0,0,1-.044.1377.3012.3012,0,0,1-.1343.0987.9557.9557,0,0,1-.2578.0654,3.7632,3.7632,0,0,1-.4306.0185,3.55,3.55,0,0,1-.4122-.0185.9723.9723,0,0,1-.2626-.0654.2648.2648,0,0,1-.1363-.0987.2465.2465,0,0,1-.0386-.1377v-9.36a.2666.2666,0,0,1,.0386-.1348.26.26,0,0,1,.1363-.1035,1.0636,1.0636,0,0,1,.2626-.0635,3.9346,3.9346,0,0,1,.4122-.0224,4.1357,4.1357,0,0,1,.4306.0224,1.0463,1.0463,0,0,1,.2578.0635.2942.2942,0,0,1,.1343.1035.2359.2359,0,0,1,.044.1348Z" fill="#808285"/><path d="M198.8349,138.4676a7.089,7.089,0,0,0-.142-1.43,3.5415,3.5415,0,0,0-.461-1.1885,2.3576,2.3576,0,0,0-.8716-.8047,2.83,2.83,0,0,0-1.3715-.2978,2.8978,2.8978,0,0,0-1.3028.2724,2.3619,2.3619,0,0,0-.8965.7647,3.3729,3.3729,0,0,0-.5254,1.1709,6.0513,6.0513,0,0,0-.17,1.4746,7.26,7.26,0,0,0,.1382,1.4482,3.359,3.359,0,0,0,.4673,1.1748,2.3813,2.3813,0,0,0,.8769.8047,3.2682,3.2682,0,0,0,2.6675.0225,2.431,2.431,0,0,0,.9033-.7578,3.2211,3.2211,0,0,0,.5206-1.1661,6.2784,6.2784,0,0,0,.1669-1.4882m1.8052-.11a7.0046,7.0046,0,0,1-.3022,2.1045,4.617,4.617,0,0,1-.8975,1.66,4.0771,4.0771,0,0,1-1.4961,1.0869,5.183,5.183,0,0,1-2.0786.3916,5.4075,5.4075,0,0,1-2.0093-.3448,3.6161,3.6161,0,0,1-1.4287-.999,4.25,4.25,0,0,1-.85-1.5918,7.3416,7.3416,0,0,1-.2807-2.122,7.1671,7.1671,0,0,1,.2949-2.1026,4.6558,4.6558,0,0,1,.893-1.6621,3.9956,3.9956,0,0,1,1.4913-1.0781,5.1816,5.1816,0,0,1,2.0849-.39,5.3478,5.3478,0,0,1,2.0093.3467,3.6248,3.6248,0,0,1,1.4258.999,4.3,4.3,0,0,1,.86,1.586,7.2851,7.2851,0,0,1,.2842,2.1152m-11.854,4.7832a.2218.2218,0,0,1-.0425.1377.3822.3822,0,0,1-.1357.1016.9037.9037,0,0,1-.2578.0615,3.634,3.634,0,0,1-.4287.0225,3.5213,3.5213,0,0,1-.416-.0225.9555.9555,0,0,1-.2627-.0615.2832.2832,0,0,1-.1343-.1016.2525.2525,0,0,1-.0386-.1377v-13.89a.2778.2778,0,0,1,.0386-.1475.2359.2359,0,0,1,.1343-.1035,1.1069,1.1069,0,0,1,.2627-.0635,3.8057,3.8057,0,0,1,.416-.02,3.929,3.929,0,0,1,.4287.02,1.043,1.043,0,0,1,.2578.0635.2981.2981,0,0,1,.1357.1035.2437.2437,0,0,1,.0425.1475Zm-4.88,0a.2431.2431,0,0,1-.0351.1377.2991.2991,0,0,1-.13.1016.83.83,0,0,1-.2451.0615,2.746,2.746,0,0,1-.3687.0225,2.98,2.98,0,0,1-.39-.0225.83.83,0,0,1-.2378-.0615.2571.2571,0,0,1-.12-.1016.3152.3152,0,0,1-.0283-.1377v-1.2383A5.8819,5.8819,0,0,1,180.77,143.19a3.3508,3.3508,0,0,1-1.5767.41,3.63,3.63,0,0,1-1.5732-.3125,2.7786,2.7786,0,0,1-1.0317-.8506,3.3585,3.3585,0,0,1-.566-1.252,7.4238,7.4238,0,0,1-.1713-1.7256V133.781a.2475.2475,0,0,1,.0371-.1416.3214.3214,0,0,1,.1377-.1015.823.823,0,0,1,.2714-.0615c.1109-.0108.2491-.0176.4141-.0176.168,0,.3057.0068.417.0176a.7733.7733,0,0,1,.2642.0615.3806.3806,0,0,1,.14.1015.2425.2425,0,0,1,.042.1416V139.23a5.6672,5.6672,0,0,0,.12,1.3173,2.4026,2.4026,0,0,0,.3613.8389,1.6672,1.6672,0,0,0,.6177.5391,1.8625,1.8625,0,0,0,.875.1963,2.1771,2.1771,0,0,0,1.2779-.46,7.2942,7.2942,0,0,0,1.3579-1.3379v-6.543a.2635.2635,0,0,1,.0356-.1416.3114.3114,0,0,1,.1411-.1015.7847.7847,0,0,1,.2627-.0615c.106-.0108.2471-.0176.4219-.0176.1655,0,.3047.0068.4141.0176a.7157.7157,0,0,1,.2592.0615.4139.4139,0,0,1,.1411.1015.2146.2146,0,0,1,.0459.1416Zm-12.852-4.2617h-1.4629a5.8451,5.8451,0,0,0-1.2266.1152,2.6644,2.6644,0,0,0-.86.3535,1.4887,1.4887,0,0,0-.5029.5616,1.6954,1.6954,0,0,0-.16.7558,1.5016,1.5016,0,0,0,.46,1.1573,1.818,1.818,0,0,0,1.2944.4345,2.4017,2.4017,0,0,0,1.251-.3447,5.3384,5.3384,0,0,0,1.2075-1.0508Zm1.7041,4.2695a.2163.2163,0,0,1-.085.19.5654.5654,0,0,1-.2256.0947,2.32,2.32,0,0,1-.4248.0313,2.5153,2.5153,0,0,1-.434-.0313.5332.5332,0,0,1-.2339-.0947.231.231,0,0,1-.0708-.19v-.9345a4.5732,4.5732,0,0,1-1.3677,1.0175,3.5668,3.5668,0,0,1-1.59.3692,4.2771,4.2771,0,0,1-1.335-.1973,2.8873,2.8873,0,0,1-1.0181-.5557,2.49,2.49,0,0,1-.6562-.8925,3.0067,3.0067,0,0,1-.23-1.209,2.8208,2.8208,0,0,1,.3194-1.3711,2.6816,2.6816,0,0,1,.9257-.9639,4.4473,4.4473,0,0,1,1.4727-.5791,9.2445,9.2445,0,0,1,1.9624-.1943h1.2876v-.7256a3.6878,3.6878,0,0,0-.1128-.957,1.5962,1.5962,0,0,0-.3687-.69,1.63,1.63,0,0,0-.66-.4219,3.1517,3.1517,0,0,0-.9961-.1377,3.9194,3.9194,0,0,0-1.1377.1514,6.6487,6.6487,0,0,0-.8818.333c-.2559.1221-.4634.2324-.6348.334a.8552.8552,0,0,1-.3789.1475.31.31,0,0,1-.1445-.0362.37.37,0,0,1-.1094-.1289.67.67,0,0,1-.0674-.2138,2.0556,2.0556,0,0,1,.0171-.6934.6126.6126,0,0,1,.1767-.29,2.2478,2.2478,0,0,1,.4815-.3145,5.5029,5.5029,0,0,1,.7886-.335,7.4576,7.4576,0,0,1,.9765-.246,6.0687,6.0687,0,0,1,2.7818.1289,2.774,2.774,0,0,1,1.1411.6718,2.596,2.596,0,0,1,.6347,1.0977,5.3006,5.3006,0,0,1,.1978,1.5244Zm-10.9941-9.1172a2.765,2.765,0,0,0-.31-1.373,2.1147,2.1147,0,0,0-.7578-.82,2.4711,2.4711,0,0,0-.9317-.3408,6.1485,6.1485,0,0,0-.9394-.0752h-1.6509v5.3925h1.6079a3.7745,3.7745,0,0,0,1.3442-.2031,2.5133,2.5133,0,0,0,.899-.5791,2.4057,2.4057,0,0,0,.5488-.8857,3.1821,3.1821,0,0,0,.19-1.1153m1.8779-.1484a4.7344,4.7344,0,0,1-.333,1.8223,3.9306,3.9306,0,0,1-.9512,1.3867,4.3389,4.3389,0,0,1-1.5171.8818,6.52,6.52,0,0,1-2.1426.3115h-1.5234V143.13a.26.26,0,0,1-.0464.1445.3236.3236,0,0,1-.1465.1016,1.5646,1.5646,0,0,1-.2715.0586,2.8242,2.8242,0,0,1-.4287.0293,2.939,2.939,0,0,1-.4331-.0293,1.6373,1.6373,0,0,1-.2719-.0586.2626.2626,0,0,1-.1465-.1016.2555.2555,0,0,1-.0425-.1445V130.7156a.7088.7088,0,0,1,.2173-.5908.75.75,0,0,1,.4883-.18h2.8789q.4327,0,.8315.0342a8.77,8.77,0,0,1,.9458.1572,4.0715,4.0715,0,0,1,1.1128.4463,3.6189,3.6189,0,0,1,.9609.8057,3.5013,3.5013,0,0,1,.6055,1.1093,4.3139,4.3139,0,0,1,.2134,1.3848m-17.584,4.585a7.1555,7.1555,0,0,0-.1411-1.43,3.5424,3.5424,0,0,0-.4619-1.1885,2.3591,2.3591,0,0,0-.8716-.8047,2.8268,2.8268,0,0,0-1.37-.2978,2.9054,2.9054,0,0,0-1.3052.2724,2.3634,2.3634,0,0,0-.896.7647,3.3612,3.3612,0,0,0-.5234,1.1709,6.0007,6.0007,0,0,0-.1714,1.4746,7.1561,7.1561,0,0,0,.14,1.4482,3.2764,3.2764,0,0,0,.4668,1.1748,2.3718,2.3718,0,0,0,.875.8047,3.27,3.27,0,0,0,2.6685.0225,2.4038,2.4038,0,0,0,.9028-.7578,3.24,3.24,0,0,0,.5225-1.1661,6.2811,6.2811,0,0,0,.1655-1.4882m1.8042-.11a7.0174,7.0174,0,0,1-.3018,2.1045,4.62,4.62,0,0,1-.8955,1.66,4.1,4.1,0,0,1-1.4956,1.0869,5.2009,5.2009,0,0,1-2.0815.3916,5.398,5.398,0,0,1-2.0083-.3448,3.6268,3.6268,0,0,1-1.4287-.999,4.29,4.29,0,0,1-.85-1.5918,7.3788,7.3788,0,0,1-.2788-2.122,7.2354,7.2354,0,0,1,.2929-2.1026,4.65,4.65,0,0,1,.8921-1.6621,4.02,4.02,0,0,1,1.4922-1.0781,5.1821,5.1821,0,0,1,2.085-.39,5.3341,5.3341,0,0,1,2.0083.3467,3.6171,3.6171,0,0,1,1.4287.999,4.2676,4.2676,0,0,1,.8569,1.586,7.2545,7.2545,0,0,1,.2842,2.1152m-11.9067-8.62a2.3936,2.3936,0,0,1-.54,1.6846,1.8968,1.8968,0,0,1-1.4614.58,2.1044,2.1044,0,0,1-.688-.0986,2.3343,2.3343,0,0,1-.55-.2549,3.7865,3.7865,0,0,1-.4565-.33c-.1377-.1191-.272-.2294-.4117-.333a3.0813,3.0813,0,0,0-.394-.2578.9954.9954,0,0,0-.4272-.0967.6007.6007,0,0,0-.5806.3018,1.6234,1.6234,0,0,0-.167.8008.3818.3818,0,0,1-.0215.1308.142.142,0,0,1-.0879.086.5647.5647,0,0,1-.1982.041c-.086.0068-.1953.0107-.3262.0107a2.2527,2.2527,0,0,1-.28-.0136.3855.3855,0,0,1-.18-.0625.2626.2626,0,0,1-.1006-.1338.7069.7069,0,0,1-.0318-.2227,2.4794,2.4794,0,0,1,.5166-1.6465,1.8567,1.8567,0,0,1,1.4854-.6132,2.025,2.025,0,0,1,.9682.2138,5.0432,5.0432,0,0,1,.7286.4668c.22.169.4243.3291.6137.4737a.9969.9969,0,0,0,.6211.2187.6439.6439,0,0,0,.562-.2754,1.4121,1.4121,0,0,0,.1924-.8164.2317.2317,0,0,1,.1094-.2236,1.2275,1.2275,0,0,1,.4707-.0576,1.12,1.12,0,0,1,.5117.0791.3975.3975,0,0,1,.1231.3486m-1.6294,9.1416h-1.4639a5.8283,5.8283,0,0,0-1.2256.1152,2.6628,2.6628,0,0,0-.8608.3535,1.5024,1.5024,0,0,0-.5049.5616,1.73,1.73,0,0,0-.1582.7558,1.4987,1.4987,0,0,0,.46,1.1573,1.8157,1.8157,0,0,0,1.2925.4345,2.4034,2.4034,0,0,0,1.2525-.3447,5.3611,5.3611,0,0,0,1.208-1.0508Zm1.7036,4.2695a.2219.2219,0,0,1-.0845.19.5724.5724,0,0,1-.2256.0947,2.3425,2.3425,0,0,1-.4272.0313,2.4921,2.4921,0,0,1-.4322-.0313.5356.5356,0,0,1-.2343-.0947.24.24,0,0,1-.0708-.19v-.9345a4.5561,4.5561,0,0,1-1.3662,1.0175,3.5771,3.5771,0,0,1-1.5909.3692,4.2954,4.2954,0,0,1-1.3374-.1973,2.9168,2.9168,0,0,1-1.018-.5557,2.51,2.51,0,0,1-.6534-.8925,2.9914,2.9914,0,0,1-.2319-1.209,2.822,2.822,0,0,1,.32-1.3711,2.6786,2.6786,0,0,1,.9258-.9639,4.4575,4.4575,0,0,1,1.4722-.5791,9.2421,9.2421,0,0,1,1.9639-.1943h1.2871v-.7256a3.6878,3.6878,0,0,0-.1128-.957,1.6229,1.6229,0,0,0-.3687-.69,1.6439,1.6439,0,0,0-.66-.4219,3.1582,3.1582,0,0,0-.9961-.1377,3.9194,3.9194,0,0,0-1.1377.1514,6.6292,6.6292,0,0,0-.8819.333c-.2558.1221-.4643.2324-.6357.334a.8494.8494,0,0,1-.3789.1475.31.31,0,0,1-.1446-.0362.3767.3767,0,0,1-.1093-.1289.7078.7078,0,0,1-.0669-.2138,1.583,1.583,0,0,1-.021-.2852,1.8571,1.8571,0,0,1,.0371-.4082.6007.6007,0,0,1,.1782-.29,2.1591,2.1591,0,0,1,.4815-.3145,5.5636,5.5636,0,0,1,.7861-.335,7.5474,7.5474,0,0,1,.98-.246,6.0638,6.0638,0,0,1,2.7807.1289,2.7885,2.7885,0,0,1,1.1416.6718,2.6319,2.6319,0,0,1,.6348,1.0977,5.3368,5.3368,0,0,1,.1973,1.5244Zm-9.397-3.5215a3.9417,3.9417,0,0,1-.3472,1.6807,3.6189,3.6189,0,0,1-.9663,1.2539,4.0925,4.0925,0,0,1-1.4555.7764,6.0142,6.0142,0,0,1-1.7989.2627,6.3432,6.3432,0,0,1-1.2505-.1172,6.73,6.73,0,0,1-1.0278-.2813,5.0756,5.0756,0,0,1-.7588-.3408,2.0658,2.0658,0,0,1-.4248-.3027.807.807,0,0,1-.1782-.3174,1.9033,1.9033,0,0,1-.0566-.5146,2.874,2.874,0,0,1,.0214-.3809.8924.8924,0,0,1,.0621-.2412.2506.2506,0,0,1,.1059-.1309.2549.2549,0,0,1,.1465-.0361.8315.8315,0,0,1,.4053.1738,6.8577,6.8577,0,0,0,.6806.3877,7.0628,7.0628,0,0,0,1.003.3906,4.64,4.64,0,0,0,1.353.18,3.467,3.467,0,0,0,1.0669-.1572,2.4742,2.4742,0,0,0,.83-.44,1.8973,1.8973,0,0,0,.5356-.7012,2.3,2.3,0,0,0,.1875-.9492,1.7572,1.7572,0,0,0-.2637-.9746,2.573,2.573,0,0,0-.6835-.7129,5.82,5.82,0,0,0-.9708-.5615c-.3608-.1709-.7333-.3428-1.1157-.5225a11.8982,11.8982,0,0,1-1.1093-.584,4.668,4.668,0,0,1-.9664-.7607,3.2761,3.2761,0,0,1-.9521-2.4317,3.5973,3.5973,0,0,1,.3027-1.5058,3.1237,3.1237,0,0,1,.85-1.1055,3.8476,3.8476,0,0,1,1.3-.6826,5.55,5.55,0,0,1,2.524-.1533,5.3663,5.3663,0,0,1,.85.2109,4.3338,4.3338,0,0,1,.7085.2871,1.9608,1.9608,0,0,1,.4116.2588.9053.9053,0,0,1,.1318.1582.5414.5414,0,0,1,.05.1445,1.51,1.51,0,0,1,.0313.2139c.0078.084.0112.1914.0112.3223a2.9943,2.9943,0,0,1-.0147.3339,1.4792,1.4792,0,0,1-.0459.2422.3408.3408,0,0,1-.0893.1485.2348.2348,0,0,1-.1309.0468.8832.8832,0,0,1-.3584-.1445c-.1621-.1015-.3608-.209-.5942-.331a5.1525,5.1525,0,0,0-.8359-.3321,3.6162,3.6162,0,0,0-1.086-.1523,2.8438,2.8438,0,0,0-.9775.1523,1.9443,1.9443,0,0,0-.6821.4043,1.49,1.49,0,0,0-.4058.5908,1.9157,1.9157,0,0,0-.1377.7286,1.74,1.74,0,0,0,.2627.9648,2.5515,2.5515,0,0,0,.69.7149,5.8223,5.8223,0,0,0,.979.5712c.3687.1739.7408.3477,1.1231.5235.3789.18.7554.376,1.12.5859a4.6018,4.6018,0,0,1,.98.7471,3.2543,3.2543,0,0,1,.9614,2.41m-16.5449-2.081a3.1266,3.1266,0,0,0-.5977-2.12,2.2614,2.2614,0,0,0-1.8628-.77,2.4342,2.4342,0,0,0-1.1108.2412,2.31,2.31,0,0,0-.7974.63,2.8076,2.8076,0,0,0-.4985.92,3.88,3.88,0,0,0-.2,1.0986Zm1.7217.51a.7306.7306,0,0,1-.2007.5771.6864.6864,0,0,1-.4624.1709h-6.1255a5.945,5.945,0,0,0,.1548,1.4053,2.6439,2.6439,0,0,0,.521,1.0674,2.3328,2.3328,0,0,0,.9428.6894,3.7447,3.7447,0,0,0,1.4253.2373,5.5624,5.5624,0,0,0,1.1836-.11,5.7511,5.7511,0,0,0,.8965-.2442c.252-.0879.46-.1689.624-.2412a.9334.9334,0,0,1,.3687-.1084.2389.2389,0,0,1,.1265.0322.2579.2579,0,0,1,.0888.1123.7615.7615,0,0,1,.0488.2032,3.0972,3.0972,0,0,1,.0142.3154,2.2284,2.2284,0,0,1-.01.2324,1.3251,1.3251,0,0,1-.0254.1778.4253.4253,0,0,1-.0523.1406.72.72,0,0,1-.0923.1191,1.4436,1.4436,0,0,1-.34.1856,4.678,4.678,0,0,1-.7266.2568,10.059,10.059,0,0,1-1.03.2236,7.46,7.46,0,0,1-1.2525.1026,5.8047,5.8047,0,0,1-2.02-.3262,3.7991,3.7991,0,0,1-1.4595-.957,4.0779,4.0779,0,0,1-.8931-1.59,7.527,7.527,0,0,1-.3012-2.2256,7.1321,7.1321,0,0,1,.3125-2.17,4.5782,4.5782,0,0,1,.8989-1.6308,3.8866,3.8866,0,0,1,1.4185-1.0284,4.6366,4.6366,0,0,1,1.8564-.3623,4.4443,4.4443,0,0,1,1.875.3584,3.5579,3.5579,0,0,1,1.272.9493,3.7982,3.7982,0,0,1,.73,1.4023,6.211,6.211,0,0,1,.2329,1.7236ZM98.95,136.5574a6.7951,6.7951,0,0,0-1.3462-1.31,2.32,2.32,0,0,0-1.354-.458,1.9377,1.9377,0,0,0-1.11.3134,2.4043,2.4043,0,0,0-.7422.8233,3.7956,3.7956,0,0,0-.416,1.1552,6.3808,6.3808,0,0,0-.1308,1.3086,8.479,8.479,0,0,0,.1093,1.3819,3.968,3.968,0,0,0,.38,1.2021,2.285,2.285,0,0,0,.7153.8408,1.8849,1.8849,0,0,0,1.1207.3184,2.3837,2.3837,0,0,0,.663-.0947,2.4839,2.4839,0,0,0,.6465-.3115,5.2588,5.2588,0,0,0,.6953-.5655A8.44,8.44,0,0,0,98.95,140.3Zm1.7212,6.583a.2953.2953,0,0,1-.0337.1475.3181.3181,0,0,1-.1245.0986,1.1456,1.1456,0,0,1-.2354.0547,2.8421,2.8421,0,0,1-.7139,0,1.236,1.236,0,0,1-.2417-.0547.36.36,0,0,1-.1347-.0986.2666.2666,0,0,1-.042-.1475v-1.2383a6.1044,6.1044,0,0,1-1.53,1.2461,3.4724,3.4724,0,0,1-1.7378.4522,3.5686,3.5686,0,0,1-1.7558-.4053,3.3046,3.3046,0,0,1-1.1783-1.08,4.7423,4.7423,0,0,1-.6577-1.6015,8.7134,8.7134,0,0,1-.21-1.9356,8.5968,8.5968,0,0,1,.2593-2.1807,4.8328,4.8328,0,0,1,.769-1.6572,3.5164,3.5164,0,0,1,1.2627-1.0576,3.8949,3.8949,0,0,1,1.7393-.3721,3.1665,3.1665,0,0,1,1.4985.3623A5.2842,5.2842,0,0,1,98.95,134.73v-5.4434a.2805.2805,0,0,1,.0351-.1377.2241.2241,0,0,1,.1431-.1025,1.8922,1.8922,0,0,1,.2607-.0664,3.1523,3.1523,0,0,1,.4126-.0215,3.3567,3.3567,0,0,1,.4253.0215,1.5139,1.5139,0,0,1,.2574.0664.2859.2859,0,0,1,.143.1025.233.233,0,0,1,.044.1377Zm-17.1363-4.6728a7.1931,7.1931,0,0,0-.1406-1.43,3.5324,3.5324,0,0,0-.4624-1.1885,2.36,2.36,0,0,0-.8711-.8047,2.8268,2.8268,0,0,0-1.37-.2978,2.9005,2.9005,0,0,0-1.3047.2724,2.3642,2.3642,0,0,0-.895.7647,3.3456,3.3456,0,0,0-.5254,1.1709,6.0493,6.0493,0,0,0-.1714,1.4746,7.1488,7.1488,0,0,0,.14,1.4482,3.2938,3.2938,0,0,0,.4677,1.1748,2.361,2.361,0,0,0,.875.8047,3.2681,3.2681,0,0,0,2.6675.0225,2.41,2.41,0,0,0,.9038-.7578,3.2545,3.2545,0,0,0,.5215-1.1661,6.2759,6.2759,0,0,0,.1655-1.4882m1.8052-.11a7.0046,7.0046,0,0,1-.3022,2.1045,4.6082,4.6082,0,0,1-.896,1.66,4.0794,4.0794,0,0,1-1.4956,1.0869,5.1906,5.1906,0,0,1-2.0791.3916,5.4153,5.4153,0,0,1-2.0108-.3448,3.6091,3.6091,0,0,1-1.4267-.999,4.25,4.25,0,0,1-.85-1.5918,7.3415,7.3415,0,0,1-.2808-2.122,7.232,7.232,0,0,1,.293-2.1026,4.6664,4.6664,0,0,1,.8945-1.6621,3.99,3.99,0,0,1,1.49-1.0781,5.1816,5.1816,0,0,1,2.0849-.39,5.3424,5.3424,0,0,1,2.0093.3467,3.6314,3.6314,0,0,1,1.4287.999,4.2819,4.2819,0,0,1,.8569,1.586,7.2851,7.2851,0,0,1,.2842,2.1152" fill="#808285"/><path d="M16.6924,1.7727c-2.5069,1.5967-3.3037,3.9922-3.191,6.96l-.227,40.2783C12.9316,59.7361,17.1489,70.69,27.4009,75.368c11.393,5.708,23.9257-.1153,32.6967-7.189l.2276-.7974.57-58.3061a6.408,6.408,0,0,0-3.3032-6.2779c-.6846-.3413-1.5952-.3413-1.7095-1.14l.1143-.2275c5.3549.684,10.8222.2275,16.1772.2275.2275,0,.4546,0,.4546.2271-.4546.913-1.48.913-2.1641,1.4848-2.5058,2.2822-2.6186,5.8179-2.6186,9.2422l-.7993,56.3667c.2275,3.0811-.2276,7.0752,2.7358,9.0147.7969.57,1.5942.57,2.3916,1.14a.3452.3452,0,0,1-.4556.3423c-4.8994-.2251-9.9111-.9126-14.9238-.2251-.1147-.1172-.1147-.231-.1147-.4566,2.7348-1.7138,3.4179-4.9087,3.4179-8.1035-.4546-.4565-.6831.2276-1.2519.57-9.9121,7.3028-23.47,11.981-35.8877,7.0757C14.4136,75.368,8.0342,66.2415,7.35,57.5677c-1.0239-8.1-.34-25.56-.34-25.56.2275-7.9878.4555-16.3154-.1143-24.3037-.4565-2.6231-3.3037-4.7915-5.6968-5.59,0-.2294.2276-.3413.3418-.4565,4.7857,0,9.4575.6855,14.1275-.2275h1.0249ZM94.8491,73.9988c.1147,1.5982,1.5957,2.8521,2.8477,3.54.7978.4546,1.937.3408,2.6215,1.0244l-.457.4565a103.454,103.454,0,0,0-16.0635.1138c-.34-.9111,2.0513-1.0264,2.8487-1.5947,2.2788-1.1421,2.9624-3.4244,2.9624-5.5943l.6831-65.38A9.1862,9.1862,0,0,0,84.14,2.2293c-.4546-.229-.2275-.4566-.2275-.6856l.6831-.229A51.8575,51.8575,0,0,0,99.1792.8582c.227.9145-.6846,1.3711-.6846,2.17a5.6448,5.6448,0,0,0,.9116,4.4492l48.0757,56.0254.3428-.23.227-51.6875c-.227-2.9672-.1128-6.0468-2.8466-7.8725-.7969-.7993-2.2788-.5718-3.0752-1.4829l.7964-.3447A78.0606,78.0606,0,0,0,158.4184,1.43l.23.2275c.2256.5718-.6841.7988-.9121.9126a6.0715,6.0715,0,0,0-3.9873,2.5112c-1.8237,5.25-.7993,10.041-1.2519,15.8594v2.2817L152.039,77.993c-.1142.57.23,1.2573-.227,1.4824L151.47,79.25,125.9512,49.011C115.1294,36.6878,105.103,24.1375,94.5063,12.1551h-.1128c0,9.9272-.9111,52.1455.4556,61.8437M184.0571,3.597c-3.0757,2.0546-2.3911,4.1074-2.62,7.1889,0,0-.229,59.7905.6831,64.6973.3418,1.8242,2.2788,2.7388,3.76,3.65l-.5694.4565c-4.7847-.9111-10.3667-.3393-15.4941-.23-.4561-.9106,1.0249-.6816,1.3667-1.1381a3.4157,3.4157,0,0,0,2.6216-2.1685l.6821-3.3105V10.2141c-.2276-2.1669-.4551-4.9038-2.3916-6.1591l-.4566-.6856c-1.0249-.7993-2.62-.4565-3.0742-1.4848l.34-.1119a73.176,73.176,0,0,0,17.3159-.1152c.4565,0,.6841-.2275,1.14,0-.6831,1.14-2.2768,1.14-3.3037,1.94M323.6914,39.9964a95.522,95.522,0,0,0-16.18.4565l-.11.4566c-.1152,11.2949-.455,23.0483.2276,34.4585l.4541.229c7.7471-.5718,17.6611.57,25.749-1.0264,2.3926-.5718,4.5537-3.0811,5.58-5.2481a.2366.2366,0,0,1,.4551,0l.2324.1119a32.8952,32.8952,0,0,1-2.6231,7.7592,5.3515,5.3515,0,0,1-3.3037,2.0567c-13.33.11-24.9492-.8008-38.51,0a.8505.8505,0,0,1-.2256-.6875c1.3681-.57,3.876-1.8257,4.5556-4.2212l.4571-2.9658.1152-20.4253V11.5847c-.23-2.7368,0-6.5034-2.7334-8.4443-.458-.6841-1.709-.4546-1.709-1.5967h.4512c10.0313,0,19.4873-.1137,29.625-.3427.6846.1137,1.5947.1137,2.0488.5717,1.3682,1.8243,1.5948,3.8789,1.8262,6.1607-.458.3413-.6875-.229-.9131-.3428-1.3672-2.6245-4.1045-3.1948-6.8359-3.0791l-14.583.3408-.3409.1138c0,10.6113-.3447,21.11.11,31.4946l.458.1133c6.1553-.229,12.418.2275,18.3428-.8008a6.1514,6.1514,0,0,0,3.8721-3.6494c.1171-.229.3437-.229.6835-.1157a99.6009,99.6009,0,0,0-.2255,11.64.35.35,0,0,1-.458,0s.9121-3.081-6.4932-3.6513M387.9482,4.282v.4566a24.795,24.795,0,0,1-.2256,8.2158c-.1162.3423-.3447.1133-.46.1133-1.9346-3.9922-6.378-8.3291-10.9336-8.7857-6.2656-1.4844-12.99.6841-16.4072,6.1626a14.7684,14.7684,0,0,0,0,13.1206c1.71,2.7388,4.8984,5.3638,7.5214,7.8745,6.7188,5.3618,13.8975,9.8125,20.5049,15.8594,4.3291,4.9053,5.24,12.8916,3.19,18.7134-1.8223,6.0469-7.52,11.98-13.7862,13.1206-7.7431,2.0561-15.72-.3394-23.4677-.7974-.23-3.9941-.6826-7.9863-.9112-12.21,0-.4561.4561-.4561.8008-.3409.68,1.14.68,2.5093,1.1367,3.65,3.19,7.1894,11.0469,8.4448,18.1153,7.9882,5.35-.456,10.9365-3.7646,12.875-9.2436,2.0478-4.9068.5664-10.8384-2.6241-14.7173a47.3614,47.3614,0,0,0-8.8837-7.873c-7.9756-6.5049-20.5088-12.7793-20.6192-24.5328a18.55,18.55,0,0,1,8.3135-16.66c7.4043-5.02,17.8867-2.7383,25.8613-.1138m57.5342,5.021c4.2148,5.7061,4.44,14.7173,1.4814,20.8814-2.8486,6.5034-9.7988,10.6113-16.5195,10.9541a38.3251,38.3251,0,0,1-9.57-.3428.6589.6589,0,0,1-.2256-.7993l.6817-.1138c6.2656.9131,13.1.4551,17.2021-4.6792C443.4346,29.156,443.32,18.886,439.9,12.2688a15.0691,15.0691,0,0,0-11.5088-8.5566,31.3879,31.3879,0,0,0-10.3672.7993l-.2256.3408-.3437,16.4312.1152,51.0034c.2285,2.2837,1.4814,5.02,3.873,5.7061.6827.229,1.5987.1137,1.8223.9111-.7949.8008-2.2764.229-3.3027.3462a45.7136,45.7136,0,0,0-14.24.11,1.7475,1.7475,0,0,1-.7978-.11l.2275-.5718c1.71-.6855,4.1026-1.2559,5.2412-3.3105l.3389-2.625.3467-32.86-.2276-30.6953a8.5062,8.5062,0,0,0-4.4453-6.731c-.23-.3423,0-.6836.3428-.5717,13.1.6855,29.958-4.9053,38.7334,7.4184" fill="#808285"/><polygon points="271.377 1.446 250.747 132.367 236.173 132.358 215.044 1.446 201.354 1.446 229.053 157.239 256.97 157.239 284.668 1.446 271.377 1.446" fill="#d13239"/><polygon points="250.745 132.367 271.377 1.446 258.077 1.446 243.456 102.543 228.834 1.446 215.042 1.433 236.174 132.36 250.745 132.367" fill="#fff"/><polygon points="258.077 1.447 243.458 102.543 228.834 1.446 258.077 1.447"/></svg>